<mxfile host="app.diagrams.net" modified="2022-08-12T19:07:54.431Z" agent="5.0 (Windows NT 10.0; WOW64) AppleWebKit/537.36 (KHTML, like Gecko) Chrome/104.0.0.0 Safari/537.36" etag="ynEL7CV9cB5i63FK4Hgq" version="15.0.4" type="github">
  <diagram id="eGYkf9uve35rr_MD60P2" name="Page-1">
    <mxGraphModel dx="652" dy="363" grid="1" gridSize="10" guides="1" tooltips="1" connect="1" arrows="1" fold="1" page="1" pageScale="1" pageWidth="827" pageHeight="1169" math="1" shadow="0">
      <root>
        <mxCell id="0" />
        <mxCell id="1" parent="0" />
        <mxCell id="mf0fESU0HonWNACRzm_F-3" value="" style="edgeStyle=orthogonalEdgeStyle;rounded=0;orthogonalLoop=1;jettySize=auto;html=1;" parent="1" source="mf0fESU0HonWNACRzm_F-1" target="mf0fESU0HonWNACRzm_F-2" edge="1">
          <mxGeometry relative="1" as="geometry" />
        </mxCell>
        <mxCell id="mf0fESU0HonWNACRzm_F-1" value="&lt;font face=&quot;Times New Roman&quot;&gt;PCF语法分析器&lt;/font&gt;" style="rounded=0;whiteSpace=wrap;html=1;" parent="1" vertex="1">
          <mxGeometry x="314" y="140" width="120" height="30" as="geometry" />
        </mxCell>
        <mxCell id="mf0fESU0HonWNACRzm_F-5" value="" style="edgeStyle=orthogonalEdgeStyle;rounded=0;orthogonalLoop=1;jettySize=auto;html=1;" parent="1" source="mf0fESU0HonWNACRzm_F-2" target="mf0fESU0HonWNACRzm_F-4" edge="1">
          <mxGeometry relative="1" as="geometry" />
        </mxCell>
        <mxCell id="mf0fESU0HonWNACRzm_F-2" value="&lt;font face=&quot;Times New Roman&quot;&gt;PCF -&amp;gt; CPS&amp;nbsp;&lt;/font&gt;" style="whiteSpace=wrap;html=1;rounded=0;" parent="1" vertex="1">
          <mxGeometry x="314" y="200" width="120" height="30" as="geometry" />
        </mxCell>
        <mxCell id="mf0fESU0HonWNACRzm_F-7" value="" style="edgeStyle=orthogonalEdgeStyle;rounded=0;orthogonalLoop=1;jettySize=auto;html=1;" parent="1" source="mf0fESU0HonWNACRzm_F-4" target="mf0fESU0HonWNACRzm_F-6" edge="1">
          <mxGeometry relative="1" as="geometry" />
        </mxCell>
        <mxCell id="mf0fESU0HonWNACRzm_F-4" value="&lt;font face=&quot;Times New Roman&quot;&gt;CPS -&amp;gt; SSA&lt;/font&gt;" style="whiteSpace=wrap;html=1;rounded=0;" parent="1" vertex="1">
          <mxGeometry x="314" y="260" width="120" height="30" as="geometry" />
        </mxCell>
        <mxCell id="mf0fESU0HonWNACRzm_F-9" value="" style="edgeStyle=orthogonalEdgeStyle;rounded=0;orthogonalLoop=1;jettySize=auto;html=1;" parent="1" source="mf0fESU0HonWNACRzm_F-6" edge="1">
          <mxGeometry relative="1" as="geometry">
            <mxPoint x="374" y="390" as="targetPoint" />
          </mxGeometry>
        </mxCell>
        <mxCell id="mf0fESU0HonWNACRzm_F-6" value="&lt;font face=&quot;Times New Roman&quot;&gt;SSA -&amp;gt; &lt;br&gt;Vellvm AST&lt;/font&gt;" style="whiteSpace=wrap;html=1;rounded=0;" parent="1" vertex="1">
          <mxGeometry x="314" y="320" width="120" height="40" as="geometry" />
        </mxCell>
        <mxCell id="mf0fESU0HonWNACRzm_F-10" value="" style="shape=curlyBracket;whiteSpace=wrap;html=1;rounded=1;flipH=1;" parent="1" vertex="1">
          <mxGeometry x="440" y="150" width="30" height="200" as="geometry" />
        </mxCell>
        <mxCell id="mf0fESU0HonWNACRzm_F-11" value="&lt;font face=&quot;Times New Roman&quot;&gt;PCF-&amp;gt;LLVM&lt;br&gt;编译器&lt;/font&gt;" style="text;html=1;strokeColor=none;fillColor=none;align=center;verticalAlign=middle;whiteSpace=wrap;rounded=0;" parent="1" vertex="1">
          <mxGeometry x="470" y="235" width="80" height="30" as="geometry" />
        </mxCell>
        <mxCell id="mf0fESU0HonWNACRzm_F-15" value="" style="edgeStyle=orthogonalEdgeStyle;rounded=0;orthogonalLoop=1;jettySize=auto;html=1;" parent="1" source="mf0fESU0HonWNACRzm_F-14" target="mf0fESU0HonWNACRzm_F-1" edge="1">
          <mxGeometry relative="1" as="geometry" />
        </mxCell>
        <mxCell id="mf0fESU0HonWNACRzm_F-14" value="&lt;font face=&quot;Times New Roman&quot;&gt;PCF程序&lt;/font&gt;文本" style="text;html=1;strokeColor=none;fillColor=none;align=center;verticalAlign=middle;whiteSpace=wrap;rounded=0;" parent="1" vertex="1">
          <mxGeometry x="299" y="90" width="150" height="20" as="geometry" />
        </mxCell>
        <mxCell id="mf0fESU0HonWNACRzm_F-16" value="&lt;font face=&quot;Times New Roman&quot;&gt;PCF 程序&amp;nbsp;&lt;/font&gt;" style="text;html=1;strokeColor=none;fillColor=none;align=center;verticalAlign=middle;whiteSpace=wrap;rounded=0;" parent="1" vertex="1">
          <mxGeometry x="286.75" y="180" width="65.5" height="20" as="geometry" />
        </mxCell>
        <mxCell id="mf0fESU0HonWNACRzm_F-17" value="&lt;font face=&quot;Times New Roman&quot;&gt;CPS 程序&lt;/font&gt;" style="text;html=1;strokeColor=none;fillColor=none;align=center;verticalAlign=middle;whiteSpace=wrap;rounded=0;" parent="1" vertex="1">
          <mxGeometry x="282.25" y="240" width="70" height="20" as="geometry" />
        </mxCell>
        <mxCell id="mf0fESU0HonWNACRzm_F-19" value="&lt;font face=&quot;Times New Roman&quot;&gt;SSA&amp;nbsp;&lt;/font&gt;程序" style="text;html=1;strokeColor=none;fillColor=none;align=center;verticalAlign=middle;whiteSpace=wrap;rounded=0;" parent="1" vertex="1">
          <mxGeometry x="264.5" y="300" width="110" height="20" as="geometry" />
        </mxCell>
        <mxCell id="mf0fESU0HonWNACRzm_F-20" value="&lt;font face=&quot;Times New Roman&quot;&gt;LLVM IR 程序&amp;nbsp;&lt;/font&gt;" style="text;html=1;strokeColor=none;fillColor=none;align=center;verticalAlign=middle;whiteSpace=wrap;rounded=0;" parent="1" vertex="1">
          <mxGeometry x="314" y="390" width="130" height="20" as="geometry" />
        </mxCell>
        <mxCell id="7wzUPQURmtUSQ00mcVvC-1" style="edgeStyle=orthogonalEdgeStyle;rounded=0;orthogonalLoop=1;jettySize=auto;html=1;exitX=0.5;exitY=1;exitDx=0;exitDy=0;" parent="1" source="mf0fESU0HonWNACRzm_F-17" target="mf0fESU0HonWNACRzm_F-17" edge="1">
          <mxGeometry relative="1" as="geometry" />
        </mxCell>
      </root>
    </mxGraphModel>
  </diagram>
</mxfile>
